<svg width="16" height="15" viewBox="0 0 16 15" fill="none" xmlns="http://www.w3.org/2000/svg">
<path d="M11.3008 2.43604H7.21179C6.35382 2.43604 5.53845 2.79504 4.96039 3.43396L2.81242 5.79489C1.95445 6.73805 1.95445 8.17408 2.81242 9.11724L4.96039 11.4782C5.53845 12.111 6.35382 12.4761 7.21179 12.4761H11.3008C12.9803 12.4761 14.3433 11.1131 14.3433 9.43365V5.47848C14.3433 3.79905 12.9803 2.43604 11.3008 2.43604ZM11.0148 8.63653C11.1913 8.81299 11.1913 9.10507 11.0148 9.28153C10.9236 9.3728 10.808 9.4154 10.6923 9.4154C10.5767 9.4154 10.4611 9.3728 10.3698 9.28153L9.18938 8.10106L8.00891 9.28153C7.91764 9.3728 7.80203 9.4154 7.68641 9.4154C7.5708 9.4154 7.45519 9.3728 7.36392 9.28153C7.18745 9.10507 7.18745 8.81299 7.36392 8.63653L8.54438 7.45606L7.36392 6.2756C7.18745 6.09914 7.18745 5.80706 7.36392 5.6306C7.54038 5.45414 7.83245 5.45414 8.00891 5.6306L9.18938 6.81107L10.3698 5.6306C10.5463 5.45414 10.8384 5.45414 11.0148 5.6306C11.1913 5.80706 11.1913 6.09914 11.0148 6.2756L9.83438 7.45606L11.0148 8.63653Z" fill="#919191"/>
</svg>
