<svg width="25" height="25" viewBox="0 0 25 25" fill="none" xmlns="http://www.w3.org/2000/svg">
<path opacity="0.4" d="M20.8193 10.4968H17.9293C15.5593 10.4968 13.6293 8.56676 13.6293 6.19676V3.30676C13.6293 2.75676 13.1793 2.30676 12.6293 2.30676H8.38934C5.30934 2.30676 2.81934 4.30676 2.81934 7.87676V16.7368C2.81934 20.3068 5.30934 22.3068 8.38934 22.3068H16.2493C19.3293 22.3068 21.8193 20.3068 21.8193 16.7368V11.4968C21.8193 10.9468 21.3693 10.4968 20.8193 10.4968Z" fill="white"/>
<path d="M16.119 2.51676C15.709 2.10676 14.999 2.38676 14.999 2.95676V6.44676C14.999 7.90676 16.239 9.11676 17.749 9.11676C18.699 9.12676 20.019 9.12676 21.149 9.12676C21.719 9.12676 22.019 8.45676 21.619 8.05676C20.179 6.60676 17.599 3.99676 16.119 2.51676Z" fill="white"/>
<path d="M11.8498 12.7768L9.84977 10.7768C9.83977 10.7668 9.82977 10.7668 9.82977 10.7568C9.76977 10.6968 9.68977 10.6468 9.60977 10.6068C9.59977 10.6068 9.59977 10.6068 9.58977 10.6068C9.50977 10.5768 9.42977 10.5668 9.34977 10.5568C9.31977 10.5568 9.29977 10.5568 9.26977 10.5568C9.20977 10.5568 9.13977 10.5768 9.07977 10.5968C9.04977 10.6068 9.02977 10.6168 9.00977 10.6268C8.92977 10.6668 8.84977 10.7068 8.78977 10.7768L6.78977 12.7768C6.49977 13.0668 6.49977 13.5468 6.78977 13.8368C7.07977 14.1268 7.55977 14.1268 7.84977 13.8368L8.56977 13.1168V17.3068C8.56977 17.7168 8.90977 18.0568 9.31977 18.0568C9.72977 18.0568 10.0698 17.7168 10.0698 17.3068V13.1168L10.7898 13.8368C10.9398 13.9868 11.1298 14.0568 11.3198 14.0568C11.5098 14.0568 11.6998 13.9868 11.8498 13.8368C12.1398 13.5468 12.1398 13.0668 11.8498 12.7768Z" fill="white"/>
</svg>
