<svg width="258" height="75" viewBox="0 0 258 75" fill="none" xmlns="http://www.w3.org/2000/svg">
<path d="M19.6235 35.0241H45.9537V56.8831H19.6235V35.0241Z" fill="url(#paint0_linear_149_1501)"/>
<path fill-rule="evenodd" clip-rule="evenodd" d="M38.4887 17.3895C37.4184 18.0916 37.4314 19.8872 38.5106 20.5756C41.9497 22.7696 47.961 27.3438 52.621 34.8294C53.2613 35.8578 54.8104 35.8694 55.4581 34.8455C58.092 30.6819 61.0184 27.459 63.6824 25.0406C64.8982 23.9368 66.757 24.8433 66.757 26.4854V51.0148C66.757 62.0995 59.0256 68.3095 49.4623 68.3095H25.0572C15.4938 68.3095 7.76244 62.0995 7.76244 51.0148V23.5047C7.76244 12.4199 15.4938 6.20995 25.0572 6.20995L46.424 6.20996C48.0682 6.20996 48.9755 8.07575 47.8748 9.29717C44.3459 13.2133 40.8178 15.8616 38.4887 17.3895ZM23.2873 55.1133H35.7072C36.9803 55.1133 38.036 54.0576 38.036 52.7846C38.036 51.5116 36.9803 50.4559 35.7072 50.4559H23.2873C22.0143 50.4559 20.9586 51.5116 20.9586 52.7846C20.9586 54.0576 22.0143 55.1133 23.2873 55.1133ZM23.2873 42.6934H41.9172C43.1902 42.6934 44.2459 41.6377 44.2459 40.3647C44.2459 39.0917 43.1902 38.036 41.9172 38.036H23.2873C22.0143 38.036 20.9586 39.0917 20.9586 40.3647C20.9586 41.6377 22.0143 42.6934 23.2873 42.6934Z" fill="white"/>
<path d="M43.9462 20.6279C42.8899 19.9049 42.8766 18.0745 43.9246 17.3396C46.2363 15.7183 49.6468 12.8663 52.5558 8.58639C53.2355 7.58638 54.791 7.60204 55.4584 8.6103C58.2568 12.838 61.6701 15.6763 64.0205 17.3036C65.0885 18.043 65.078 19.9365 64.009 20.6744C61.717 22.2563 58.395 25.0458 55.4882 29.3982C54.8154 30.4057 53.2568 30.396 52.5885 29.3856C49.7369 25.0739 46.2889 22.2314 43.9462 20.6279Z" fill="url(#paint1_linear_149_1501)"/>
<path d="M19.6235 35.0241H45.9537V56.8831H19.6235V35.0241Z" fill="url(#paint2_linear_149_1501)"/>
<path fill-rule="evenodd" clip-rule="evenodd" d="M38.4887 17.3895C37.4184 18.0916 37.4314 19.8872 38.5106 20.5756C41.9497 22.7696 47.961 27.3438 52.621 34.8294C53.2613 35.8578 54.8104 35.8694 55.4581 34.8455C58.092 30.6819 61.0184 27.459 63.6824 25.0406C64.8982 23.9368 66.757 24.8433 66.757 26.4854V51.0148C66.757 62.0995 59.0256 68.3095 49.4623 68.3095H25.0572C15.4938 68.3095 7.76244 62.0995 7.76244 51.0148V23.5047C7.76244 12.4199 15.4938 6.20995 25.0572 6.20995L46.424 6.20996C48.0682 6.20996 48.9755 8.07575 47.8748 9.29717C44.3459 13.2133 40.8178 15.8616 38.4887 17.3895ZM23.2873 55.1133H35.7072C36.9803 55.1133 38.036 54.0576 38.036 52.7846C38.036 51.5116 36.9803 50.4559 35.7072 50.4559H23.2873C22.0143 50.4559 20.9586 51.5116 20.9586 52.7846C20.9586 54.0576 22.0143 55.1133 23.2873 55.1133ZM23.2873 42.6934H41.9172C43.1902 42.6934 44.2459 41.6377 44.2459 40.3647C44.2459 39.0917 43.1902 38.036 41.9172 38.036H23.2873C22.0143 38.036 20.9586 39.0917 20.9586 40.3647C20.9586 41.6377 22.0143 42.6934 23.2873 42.6934Z" fill="white"/>
<path d="M43.9462 20.6279C42.8899 19.9049 42.8766 18.0745 43.9246 17.3396C46.2363 15.7183 49.6468 12.8663 52.5558 8.58639C53.2355 7.58638 54.791 7.60204 55.4584 8.6103C58.2568 12.838 61.6701 15.6763 64.0205 17.3036C65.0885 18.043 65.078 19.9365 64.009 20.6744C61.717 22.2563 58.395 25.0458 55.4882 29.3982C54.8154 30.4057 53.2568 30.396 52.5885 29.3856C49.7369 25.0739 46.2889 22.2314 43.9462 20.6279Z" fill="url(#paint3_linear_149_1501)"/>
<path d="M97.4072 47.5271C93.6607 47.5271 90.5662 46.2822 88.1238 43.7923C85.6814 41.3025 84.4602 38.2317 84.4602 34.58C84.4602 30.9045 85.6814 27.8337 88.1238 25.3676C90.5662 22.8778 93.6607 21.6329 97.4072 21.6329C99.6599 21.6329 101.735 22.1664 103.632 23.2335C105.553 24.2769 107.046 25.6996 108.113 27.5018L103.881 29.956C103.264 28.8415 102.387 27.976 101.249 27.3595C100.11 26.7193 98.83 26.3991 97.4072 26.3991C94.9886 26.3991 93.0323 27.1579 91.5384 28.6755C90.0682 30.1932 89.3331 32.1613 89.3331 34.58C89.3331 36.975 90.0682 38.9313 91.5384 40.4489C93.0323 41.9665 94.9886 42.7253 97.4072 42.7253C98.83 42.7253 100.11 42.417 101.249 41.8005C102.411 41.1602 103.288 40.2947 103.881 39.2039L108.113 41.6582C107.046 43.4604 105.564 44.895 103.667 45.962C101.77 47.0054 99.6837 47.5271 97.4072 47.5271ZM126.172 44.8238C124.346 46.626 122.117 47.5271 119.485 47.5271C116.853 47.5271 114.624 46.626 112.798 44.8238C110.996 42.998 110.095 40.769 110.095 38.1369C110.095 35.5048 110.996 33.2876 112.798 31.4855C114.624 29.6596 116.853 28.7467 119.485 28.7467C122.117 28.7467 124.346 29.6596 126.172 31.4855C127.998 33.2876 128.911 35.5048 128.911 38.1369C128.911 40.769 127.998 42.998 126.172 44.8238ZM116.035 41.6582C116.96 42.583 118.11 43.0454 119.485 43.0454C120.86 43.0454 122.01 42.583 122.935 41.6582C123.86 40.7334 124.322 39.5596 124.322 38.1369C124.322 36.7141 123.86 35.5403 122.935 34.6156C122.01 33.6908 120.86 33.2284 119.485 33.2284C118.11 33.2284 116.96 33.6908 116.035 34.6156C115.134 35.5403 114.683 36.7141 114.683 38.1369C114.683 39.5596 115.134 40.7334 116.035 41.6582ZM132.352 38.4926V34.082H145.69V38.4926H132.352ZM171.26 43.7923C168.747 46.2822 165.688 47.5271 162.084 47.5271C158.479 47.5271 155.42 46.2822 152.907 43.7923C150.417 41.2788 149.172 38.208 149.172 34.58C149.172 30.952 150.417 27.893 152.907 25.4032C155.42 22.8897 158.479 21.6329 162.084 21.6329C165.688 21.6329 168.747 22.8897 171.26 25.4032C173.774 27.893 175.031 30.952 175.031 34.58C175.031 38.208 173.774 41.2788 171.26 43.7923ZM156.357 40.4489C157.898 41.9665 159.807 42.7253 162.084 42.7253C164.36 42.7253 166.269 41.9665 167.81 40.4489C169.351 38.9075 170.122 36.9512 170.122 34.58C170.122 32.2087 169.351 30.2524 167.81 28.7111C166.269 27.1698 164.36 26.3991 162.084 26.3991C159.807 26.3991 157.898 27.1698 156.357 28.7111C154.816 30.2524 154.045 32.2087 154.045 34.58C154.045 36.9512 154.816 38.9075 156.357 40.4489ZM203.734 29.2446V47.0291H199.146V33.6552H193.917V47.0291H189.329V33.6552H184.065V47.0291H179.476V33.6552H176.915V29.2446H179.476V29.0668C179.476 26.5533 180.176 24.6444 181.575 23.3402C182.974 22.036 185.061 21.4669 187.835 21.6329V26.0434C185.322 25.8537 184.065 26.8615 184.065 29.0668V29.2446H189.329V28.7111C189.329 23.7552 192.115 21.2772 197.688 21.2772C198.968 21.2772 200.367 21.4432 201.885 21.7752V25.9723C200.249 25.7826 198.85 25.6878 197.688 25.6878C196.431 25.6878 195.482 25.913 194.842 26.3636C194.226 26.7904 193.917 27.5729 193.917 28.7111V29.2446H203.734ZM216.396 47.5271C213.717 47.5271 211.476 46.626 209.674 44.8238C207.895 43.0217 207.006 40.7927 207.006 38.1369C207.006 35.4811 207.895 33.2521 209.674 31.4499C211.476 29.6478 213.717 28.7467 216.396 28.7467C218.127 28.7467 219.704 29.1617 221.127 29.9916C222.55 30.8215 223.629 31.936 224.364 33.3351L220.416 35.6471C220.06 34.912 219.515 34.331 218.78 33.9042C218.068 33.4773 217.262 33.2639 216.361 33.2639C214.986 33.2639 213.847 33.7263 212.946 34.6511C212.045 35.5522 211.595 36.7141 211.595 38.1369C211.595 39.5359 212.045 40.6978 212.946 41.6226C213.847 42.5237 214.986 42.9743 216.361 42.9743C217.286 42.9743 218.104 42.7727 218.815 42.3696C219.55 41.9428 220.096 41.3618 220.451 40.6267L224.435 42.9031C223.653 44.3022 222.55 45.4285 221.127 46.2822C219.704 47.1121 218.127 47.5271 216.396 47.5271ZM230.461 40.022C231.077 42.251 232.749 43.3655 235.476 43.3655C237.231 43.3655 238.559 42.7727 239.46 41.5871L243.159 43.7212C241.404 46.2585 238.82 47.5271 235.405 47.5271C232.465 47.5271 230.105 46.6379 228.327 44.8594C226.548 43.081 225.659 40.8401 225.659 38.1369C225.659 35.4574 226.536 33.2284 228.291 31.4499C230.046 29.6478 232.299 28.7467 235.049 28.7467C237.658 28.7467 239.804 29.6478 241.487 31.4499C243.195 33.2521 244.048 35.4811 244.048 38.1369C244.048 38.7297 243.989 39.3581 243.87 40.022H230.461ZM230.39 36.4651H239.46C239.199 35.2558 238.654 34.3547 237.824 33.7619C237.017 33.1691 236.093 32.8727 235.049 32.8727C233.816 32.8727 232.797 33.1928 231.99 33.833C231.184 34.4496 230.651 35.3269 230.39 36.4651ZM251.84 32.3036C252.267 31.1654 252.966 30.3117 253.938 29.7426C254.934 29.1735 256.037 28.889 257.246 28.889V34.0109C255.847 33.8449 254.59 34.1294 253.476 34.8645C252.385 35.5996 251.84 36.8208 251.84 38.5281V47.0291H247.251V29.2446H251.84V32.3036Z" fill="white"/>
<defs>
<linearGradient id="paint0_linear_149_1501" x1="74.5194" y1="4.31997" x2="-12.927" y2="60.9509" gradientUnits="userSpaceOnUse">
<stop stop-color="#FBC231"/>
<stop offset="1" stop-color="#FC792A"/>
</linearGradient>
<linearGradient id="paint1_linear_149_1501" x1="74.5194" y1="4.31997" x2="-12.927" y2="60.9509" gradientUnits="userSpaceOnUse">
<stop stop-color="#FBC231"/>
<stop offset="1" stop-color="#FC792A"/>
</linearGradient>
<linearGradient id="paint2_linear_149_1501" x1="74.5194" y1="4.31997" x2="-12.927" y2="60.9509" gradientUnits="userSpaceOnUse">
<stop stop-color="#FBC231"/>
<stop offset="1" stop-color="#FC792A"/>
</linearGradient>
<linearGradient id="paint3_linear_149_1501" x1="74.5194" y1="4.31997" x2="-12.927" y2="60.9509" gradientUnits="userSpaceOnUse">
<stop stop-color="#FBC231"/>
<stop offset="1" stop-color="#FC792A"/>
</linearGradient>
</defs>
</svg>
