<svg width="24" height="24" viewBox="0 0 24 24" fill="none" xmlns="http://www.w3.org/2000/svg">
<path d="M17.53 7.77C17.46 7.76 17.39 7.76 17.32 7.77C15.77 7.72 14.54 6.45 14.54 4.89C14.54 3.3 15.83 2 17.43 2C19.02 2 20.32 3.29 20.32 4.89C20.31 6.45 19.08 7.72 17.53 7.77Z" fill="white"/>
<path d="M20.7896 14.7C19.6696 15.45 18.0996 15.73 16.6496 15.54C17.0296 14.72 17.2296 13.81 17.2396 12.85C17.2396 11.85 17.0196 10.9 16.5996 10.07C18.0796 9.86998 19.6496 10.15 20.7796 10.9C22.3596 11.94 22.3596 13.65 20.7896 14.7Z" fill="white"/>
<path d="M6.44016 7.77C6.51016 7.76 6.58016 7.76 6.65016 7.77C8.20016 7.72 9.43016 6.45 9.43016 4.89C9.43016 3.29 8.14016 2 6.54016 2C4.95016 2 3.66016 3.29 3.66016 4.89C3.66016 6.45 4.89016 7.72 6.44016 7.77Z" fill="white"/>
<path d="M6.55012 12.85C6.55012 13.82 6.76012 14.74 7.14012 15.57C5.73012 15.72 4.26012 15.42 3.18012 14.71C1.60012 13.66 1.60012 11.95 3.18012 10.9C4.25012 10.18 5.76012 9.88998 7.18012 10.05C6.77012 10.89 6.55012 11.84 6.55012 12.85Z" fill="white"/>
<path d="M12.1198 15.87C12.0398 15.86 11.9498 15.86 11.8598 15.87C10.0198 15.81 8.5498 14.3 8.5498 12.44C8.5598 10.54 10.0898 9 11.9998 9C13.8998 9 15.4398 10.54 15.4398 12.44C15.4298 14.3 13.9698 15.81 12.1198 15.87Z" fill="white"/>
<path d="M8.8698 17.94C7.3598 18.95 7.3598 20.61 8.8698 21.61C10.5898 22.76 13.4098 22.76 15.1298 21.61C16.6398 20.6 16.6398 18.94 15.1298 17.94C13.4198 16.79 10.5998 16.79 8.8698 17.94Z" fill="white"/>
</svg>
